<svg width="23" height="23" viewBox="0 0 23 23" fill="none" xmlns="http://www.w3.org/2000/svg">
<g id="Frame" clip-path="url(#clip0_2_1121)">
<g id="Group">
<path id="Vector" d="M15.8753 0.51101C15.8285 0.45876 14.1441 0.531635 12.6784 2.12251C11.2126 3.71201 11.4381 5.53526 11.4711 5.58201C11.5041 5.62876 13.5611 5.70163 14.8743 3.85226C16.1874 2.00288 15.922 0.564635 15.8753 0.51101ZM20.432 16.6439C20.366 16.5119 17.2351 14.9471 17.5266 11.9386C17.8181 8.92876 19.8298 8.10376 19.8614 8.01439C19.893 7.92501 19.0405 6.92813 18.1371 6.42351C17.4739 6.06773 16.7398 5.8639 15.988 5.82676C15.8395 5.82263 15.3239 5.69613 14.2638 5.98626C13.5653 6.17738 11.9909 6.79613 11.5578 6.82089C11.1233 6.84563 9.83077 6.10313 8.44065 5.90651C7.55102 5.73463 6.60777 6.08664 5.93265 6.35751C5.2589 6.62701 3.9774 7.39426 3.0809 9.43338C2.1844 11.4711 2.65327 14.6996 2.98877 15.7034C3.32427 16.7058 3.84815 18.3489 4.73915 19.5479C5.53115 20.9009 6.58165 21.84 7.02027 22.159C7.4589 22.478 8.6964 22.6898 9.5544 22.2511C10.2446 21.8276 11.4904 21.5843 11.9826 21.6021C12.4735 21.62 13.4415 21.8139 14.4329 22.3433C15.218 22.6141 15.9605 22.5014 16.7044 22.1989C17.4483 21.895 18.5249 20.7428 19.7816 18.4066C20.2588 17.3204 20.476 16.7333 20.432 16.6439Z" fill="black"/>
<path id="Vector_2" d="M15.8753 0.51101C15.8285 0.45876 14.1441 0.531635 12.6784 2.12251C11.2126 3.71201 11.4381 5.53526 11.4711 5.58201C11.5041 5.62876 13.5611 5.70163 14.8743 3.85226C16.1874 2.00288 15.922 0.564635 15.8753 0.51101ZM20.432 16.6439C20.366 16.5119 17.2351 14.9471 17.5266 11.9386C17.8181 8.92876 19.8298 8.10376 19.8614 8.01439C19.893 7.92501 19.0405 6.92813 18.1371 6.42351C17.4739 6.06773 16.7398 5.8639 15.988 5.82676C15.8395 5.82263 15.3239 5.69613 14.2638 5.98626C13.5653 6.17738 11.9909 6.79613 11.5578 6.82089C11.1233 6.84563 9.83077 6.10313 8.44065 5.90651C7.55102 5.73463 6.60777 6.08664 5.93265 6.35751C5.2589 6.62701 3.9774 7.39426 3.0809 9.43338C2.1844 11.4711 2.65327 14.6996 2.98877 15.7034C3.32427 16.7058 3.84815 18.3489 4.73915 19.5479C5.53115 20.9009 6.58165 21.84 7.02027 22.159C7.4589 22.478 8.6964 22.6898 9.5544 22.2511C10.2446 21.8276 11.4904 21.5843 11.9826 21.6021C12.4735 21.62 13.4415 21.8139 14.4329 22.3433C15.218 22.6141 15.9605 22.5014 16.7044 22.1989C17.4483 21.895 18.5249 20.7428 19.7816 18.4066C20.2588 17.3204 20.476 16.7333 20.432 16.6439Z" fill="black"/>
</g>
</g>
<defs>
<clipPath id="clip0_2_1121">
<rect width="22" height="22" fill="white" transform="translate(0.5 0.5)"/>
</clipPath>
</defs>
</svg>
