<svg width="25" height="24" viewBox="0 0 25 24" fill="none" xmlns="http://www.w3.org/2000/svg">
<rect width="25" height="24" fill="#1E1E1E"/>
<g clip-path="url(#clip0_0_1)">
<rect width="375" height="812" transform="translate(-32 -732)" fill="white"/>
<rect width="375" height="812" transform="translate(-32 -732)" fill="url(#paint0_linear_0_1)"/>
<rect width="375" height="144" transform="translate(-32 -64)" fill="url(#paint1_linear_0_1)"/>
<g filter="url(#filter0_d_0_1)">
<path d="M-23.5 12C-23.5 -7.88225 -7.38225 -24 12.5 -24H298.5C318.382 -24 334.5 -7.88225 334.5 12C334.5 31.8823 318.382 48 298.5 48H12.5C-7.38226 48 -23.5 31.8823 -23.5 12Z" fill="white" shape-rendering="crispEdges"/>
<g clip-path="url(#clip1_0_1)">
<path d="M17.2331 12.9557L15.7804 11.503L19.6195 7.66393L20.1167 8.16108C20.4386 8.48302 20.9804 8.41959 21.2168 8.02566L24.1998 3.05397C24.3658 2.77732 24.3222 2.42318 24.094 2.19509L22.1053 0.206423C21.8772 -0.0217163 21.523 -0.065263 21.2464 0.100674L16.2747 3.08369C15.8824 3.3191 15.8165 3.86088 16.1393 4.18375L16.6365 4.68091L12.7974 8.52L11.3447 7.06735C11.856 5.15683 11.3345 3.07952 9.88829 1.63325C8.07925 -0.175747 5.37115 -0.462058 3.2533 0.678734C3.05765 0.784156 2.92335 0.975827 2.89105 1.19572C2.8588 1.41561 2.9324 1.63779 3.08957 1.79496L5.72824 4.43364C6.00241 4.70781 6.00241 5.15387 5.72824 5.42795C5.45407 5.70212 5.00806 5.70217 4.73389 5.42795L2.09521 2.78923C1.93804 2.63205 1.71581 2.55841 1.49596 2.59071C1.27607 2.62296 1.0844 2.7573 0.978981 2.95296C-0.157499 5.06289 0.118407 7.77277 1.93359 9.5879C3.37663 11.0309 5.45285 11.5569 7.36769 11.0444L7.82584 11.5025L1.33129 17.9972C-0.0433584 19.3718 -0.0442022 21.5936 1.33129 22.9691C2.70205 24.3398 4.9324 24.3399 6.30321 22.9691L12.7977 16.4744L13.256 16.9327C12.7447 18.8432 13.2662 20.9205 14.7124 22.3668C16.5215 24.1758 19.2295 24.4621 21.3474 23.3213C21.5431 23.2159 21.6774 23.0242 21.7096 22.8044C21.7419 22.5845 21.6683 22.3623 21.5111 22.2051L18.8725 19.5664C18.5983 19.2923 18.5983 18.8462 18.8725 18.5721C19.1466 18.2979 19.5927 18.298 19.8668 18.5721L22.5055 21.2108C22.6626 21.368 22.8848 21.4415 23.1047 21.4093C23.3246 21.3771 23.5163 21.2427 23.6217 21.0471C24.7582 18.9371 24.4823 16.2273 22.6672 14.4121C21.2241 12.9691 19.1479 12.4432 17.2331 12.9557ZM21.4992 1.58895L22.7115 2.80123L20.4743 6.52993L17.7704 3.82619L21.4992 1.58895ZM17.6308 5.67526L18.6251 6.66957L14.7861 10.5087L13.7917 9.51436L17.6308 5.67526ZM5.30886 21.9749C4.48639 22.7973 3.14811 22.7973 2.3256 21.9749C1.50037 21.1496 1.49985 19.8173 2.3256 18.9916L8.82011 12.4969L11.8034 15.4802L5.30886 21.9749ZM22.7498 19.4664L20.8612 17.5778C20.0388 16.7555 18.7006 16.7554 17.8781 17.5778C17.0558 18.4002 17.0558 19.7384 17.8781 20.5608L19.7668 22.4495C18.3319 22.8412 16.7895 22.4552 15.7068 21.3725C14.5609 20.2266 14.1718 18.499 14.7156 16.9713C14.8066 16.7155 14.7423 16.4303 14.5503 16.2384L8.06205 9.75009C7.87052 9.55856 7.58542 9.49364 7.32911 9.58486C5.80137 10.1287 4.07384 9.7395 2.9279 8.59359C1.84518 7.51088 1.45917 5.9686 1.85095 4.53367L3.73958 6.42231C4.56195 7.24468 5.90013 7.24463 6.7226 6.42231C7.54497 5.59993 7.54497 4.26175 6.7226 3.43929L4.83397 1.55065C6.26885 1.15878 7.81122 1.54489 8.89393 2.6276C10.0399 3.77355 10.429 5.50112 9.8852 7.02882C9.79416 7.28457 9.85848 7.56985 10.0504 7.76175L16.5387 14.25C16.7306 14.4419 17.0159 14.5062 17.2716 14.4152C18.7992 13.8714 20.5269 14.2606 21.6728 15.4065C22.7556 16.4893 23.1416 18.0315 22.7498 19.4664Z" fill="#8A919A"/>
<path d="M9.44199 14.9994C9.1674 14.7248 8.72228 14.7248 8.44768 14.9994L4.15123 19.296C3.87669 19.5706 3.87669 20.0157 4.15123 20.2903C4.42587 20.5649 4.87095 20.5648 5.14554 20.2903L9.44195 15.9937C9.71649 15.7191 9.71649 15.2739 9.44199 14.9994Z" fill="#8A919A"/>
</g>
</g>
</g>
<defs>
<filter id="filter0_d_0_1" x="-59.5" y="-48" width="430" height="144" filterUnits="userSpaceOnUse" color-interpolation-filters="sRGB">
<feFlood flood-opacity="0" result="BackgroundImageFix"/>
<feColorMatrix in="SourceAlpha" type="matrix" values="0 0 0 0 0 0 0 0 0 0 0 0 0 0 0 0 0 0 127 0" result="hardAlpha"/>
<feOffset dy="12"/>
<feGaussianBlur stdDeviation="18"/>
<feComposite in2="hardAlpha" operator="out"/>
<feColorMatrix type="matrix" values="0 0 0 0 0 0 0 0 0 0 0 0 0 0 0 0 0 0 0.12 0"/>
<feBlend mode="normal" in2="BackgroundImageFix" result="effect1_dropShadow_0_1"/>
<feBlend mode="normal" in="SourceGraphic" in2="effect1_dropShadow_0_1" result="shape"/>
</filter>
<linearGradient id="paint0_linear_0_1" x1="187.5" y1="-8.12376e-05" x2="187.5" y2="867" gradientUnits="userSpaceOnUse">
<stop offset="0.115117" stop-color="white"/>
<stop offset="0.244015" stop-color="#E6F9FF"/>
<stop offset="0.663278" stop-color="#EBF5FF"/>
</linearGradient>
<linearGradient id="paint1_linear_0_1" x1="187.5" y1="-17.4706" x2="187.5" y2="93.7059" gradientUnits="userSpaceOnUse">
<stop stop-color="white" stop-opacity="0"/>
<stop offset="1" stop-color="white"/>
</linearGradient>
<clipPath id="clip0_0_1">
<rect width="375" height="812" fill="white" transform="translate(-32 -732)"/>
</clipPath>
<clipPath id="clip1_0_1">
<rect width="24" height="24" fill="white" transform="translate(0.299999)"/>
</clipPath>
</defs>
</svg>
