<svg width="20" height="21" viewBox="0 0 20 21" fill="none" xmlns="http://www.w3.org/2000/svg">
<g id="Frame" clip-path="url(#clip0_2_1114)">
<path id="Vector" d="M19.9895 10.6871C19.9895 9.86773 19.9214 9.2698 19.7742 8.64972H10.1992V12.348H15.8195C15.7062 13.2671 15.0943 14.6512 13.7346 15.5813L13.7155 15.7051L16.7429 17.997L16.9527 18.0174C18.8789 16.279 19.9895 13.7211 19.9895 10.6871Z" fill="#4285F4"/>
<path id="Vector_2" d="M10.1993 20.4313C12.9527 20.4313 15.2643 19.5454 16.9527 18.0174L13.7346 15.5813C12.8734 16.1682 11.7176 16.5779 10.1993 16.5779C7.50243 16.5779 5.21353 14.8395 4.39759 12.4366L4.278 12.4466L1.13003 14.8273L1.08887 14.9391C2.76588 18.1945 6.21061 20.4313 10.1993 20.4313Z" fill="#34A853"/>
<path id="Vector_3" d="M4.3976 12.4366C4.18231 11.8166 4.05771 11.1521 4.05771 10.4657C4.05771 9.77909 4.18231 9.11473 4.38627 8.49466L4.38057 8.3626L1.19316 5.94366L1.08888 5.99214C0.397698 7.34305 0.00109863 8.86008 0.00109863 10.4657C0.00109863 12.0712 0.397698 13.5882 1.08888 14.9391L4.3976 12.4366Z" fill="#FBBC05"/>
<path id="Vector_4" d="M10.1993 4.35336C12.1142 4.35336 13.406 5.16168 14.1425 5.83718L17.0207 3.09107C15.253 1.4855 12.9527 0.5 10.1993 0.5C6.21061 0.5 2.76588 2.73672 1.08887 5.99214L4.38626 8.49466C5.21352 6.09183 7.50243 4.35336 10.1993 4.35336Z" fill="#EB4335"/>
</g>
<defs>
<clipPath id="clip0_2_1114">
<rect width="20" height="20" fill="white" transform="translate(0 0.5)"/>
</clipPath>
</defs>
</svg>
