<svg width="24" height="24" viewBox="0 0 24 24" fill="none" xmlns="http://www.w3.org/2000/svg">
<path fill-rule="evenodd" clip-rule="evenodd" d="M12.5262 1C6.74172 1 2.05249 5.68923 2.05249 11.4737C2.05249 12.8686 2.3257 14.2021 2.82246 15.4219C2.95553 15.7486 2.9671 16.0578 2.88388 16.3022L1.70858 19.7533C1.17342 21.3247 2.67511 22.8264 4.24655 22.2913L7.6977 21.116C7.94209 21.0328 8.25121 21.0443 8.57796 21.1774C9.79775 21.6742 11.1313 21.9474 12.5262 21.9474C18.3106 21.9474 22.9999 17.2581 22.9999 11.4737C22.9999 5.68923 18.3106 1 12.5262 1ZM4.05249 11.4737C4.05249 6.7938 7.84629 3 12.5262 3C17.2061 3 20.9999 6.7938 20.9999 11.4737C20.9999 16.1536 17.2061 19.9474 12.5262 19.9474C11.3943 19.9474 10.3167 19.726 9.3323 19.3251C8.6509 19.0476 7.83901 18.9551 7.05296 19.2228L3.6018 20.3981L4.77711 16.9469C5.0448 16.1608 4.95225 15.349 4.67475 14.6676C4.27386 13.6832 4.05249 12.6055 4.05249 11.4737ZM9.50003 11.5C9.50003 12.0523 9.05232 12.5 8.50003 12.5C7.94775 12.5 7.50003 12.0523 7.50003 11.5C7.50003 10.9477 7.94775 10.5 8.50003 10.5C9.05232 10.5 9.50003 10.9477 9.50003 11.5ZM13.5 11.5C13.5 12.0523 13.0523 12.5 12.5 12.5C11.9477 12.5 11.5 12.0523 11.5 11.5C11.5 10.9477 11.9477 10.5 12.5 10.5C13.0523 10.5 13.5 10.9477 13.5 11.5ZM16.5 12.5C17.0523 12.5 17.5 12.0523 17.5 11.5C17.5 10.9477 17.0523 10.5 16.5 10.5C15.9477 10.5 15.5 10.9477 15.5 11.5C15.5 12.0523 15.9477 12.5 16.5 12.5Z" fill="#8A919A"/>
</svg>
