<svg width="25" height="24" viewBox="0 0 25 24" fill="none" xmlns="http://www.w3.org/2000/svg">
<rect width="25" height="24" fill="#1E1E1E"/>
<g id="Home" clip-path="url(#clip0_0_1)">
<rect width="375" height="812" transform="translate(-318 -732)" fill="white"/>
<rect width="375" height="812" transform="translate(-318 -732)" fill="url(#paint0_linear_0_1)"/>
<g id="Frame 1618872683">
<rect width="375" height="144" transform="translate(-318 -64)" fill="url(#paint1_linear_0_1)"/>
<g id="Navbar" filter="url(#filter0_d_0_1)">
<path d="M-309.5 12C-309.5 -7.88225 -293.382 -24 -273.5 -24H12.5C32.3823 -24 48.5 -7.88225 48.5 12C48.5 31.8823 32.3823 48 12.5 48H-273.5C-293.382 48 -309.5 31.8823 -309.5 12Z" fill="white" shape-rendering="crispEdges"/>
<g id="Frame 13">
<g id="vuesax/linear/profile">
<g id="vuesax/linear/profile_2">
<g id="profile">
<path id="Vector" d="M12.8599 10.87C12.7599 10.86 12.6399 10.86 12.5299 10.87C10.1499 10.79 8.25995 8.84 8.25995 6.44C8.25995 3.99 10.2399 2 12.6999 2C15.1499 2 17.1399 3.99 17.1399 6.44C17.1299 8.84 15.2399 10.79 12.8599 10.87Z" stroke="#8A919A" stroke-width="1.5" stroke-linecap="round" stroke-linejoin="round"/>
<path id="Vector_2" d="M7.85995 14.56C5.43995 16.18 5.43995 18.82 7.85995 20.43C10.61 22.27 15.12 22.27 17.87 20.43C20.29 18.81 20.29 16.17 17.87 14.56C15.13 12.73 10.62 12.73 7.85995 14.56Z" stroke="#8A919A" stroke-width="1.5" stroke-linecap="round" stroke-linejoin="round"/>
</g>
</g>
</g>
</g>
</g>
</g>
</g>
<defs>
<filter id="filter0_d_0_1" x="-345.5" y="-48" width="430" height="144" filterUnits="userSpaceOnUse" color-interpolation-filters="sRGB">
<feFlood flood-opacity="0" result="BackgroundImageFix"/>
<feColorMatrix in="SourceAlpha" type="matrix" values="0 0 0 0 0 0 0 0 0 0 0 0 0 0 0 0 0 0 127 0" result="hardAlpha"/>
<feOffset dy="12"/>
<feGaussianBlur stdDeviation="18"/>
<feComposite in2="hardAlpha" operator="out"/>
<feColorMatrix type="matrix" values="0 0 0 0 0 0 0 0 0 0 0 0 0 0 0 0 0 0 0.12 0"/>
<feBlend mode="normal" in2="BackgroundImageFix" result="effect1_dropShadow_0_1"/>
<feBlend mode="normal" in="SourceGraphic" in2="effect1_dropShadow_0_1" result="shape"/>
</filter>
<linearGradient id="paint0_linear_0_1" x1="187.5" y1="-8.12376e-05" x2="187.5" y2="867" gradientUnits="userSpaceOnUse">
<stop offset="0.115117" stop-color="white"/>
<stop offset="0.244015" stop-color="#E6F9FF"/>
<stop offset="0.663278" stop-color="#EBF5FF"/>
</linearGradient>
<linearGradient id="paint1_linear_0_1" x1="187.5" y1="-17.4706" x2="187.5" y2="93.7059" gradientUnits="userSpaceOnUse">
<stop stop-color="white" stop-opacity="0"/>
<stop offset="1" stop-color="white"/>
</linearGradient>
<clipPath id="clip0_0_1">
<rect width="375" height="812" fill="white" transform="translate(-318 -732)"/>
</clipPath>
</defs>
</svg>
